{
    "asset" : {
        "generator" : "Khronos glTF Blender I/O v3.3.32",
        "version" : "2.0"
    },
    "extensionsUsed" : [
        "KHR_materials_transmission",
        "KHR_materials_specular",
        "KHR_materials_ior",
        "KHR_materials_unlit"
    ],
    "scene" : 0,
    "scenes" : [
        {
            "name" : "Scene",
            "nodes" : [
                0,
                1,
                2,
                3,
                4,
                5,
                6,
                7,
                8,
                9,
                10,
                11,
                12,
                13,
                14,
                15,
                16,
                17,
                18,
                19,
                20,
                21,
                22,
                23
            ]
        }
    ],
    "nodes" : [
        {
            "mesh" : 0,
            "name" : "Plane.006",
            "rotation" : [
                0,
                -0.9442105293273926,
                0,
                0.3293425738811493
            ],
            "scale" : [
                6.6063642501831055,
                6.606365203857422,
                6.6063642501831055
            ],
            "translation" : [
                1.8642783164978027,
                2.87302303314209,
                -2.8933072090148926
            ]
        },
        {
            "mesh" : 1,
            "name" : "Cube",
            "rotation" : [
                0,
                0.33350348472595215,
                0,
                0.9427489042282104
            ],
            "scale" : [
                1.5499998331069946,
                1.0999999046325684,
                0.04999997839331627
            ],
            "translation" : [
                1.747194528579712,
                1.3509739637374878,
                -4.320335865020752
            ]
        },
        {
            "name" : "BLOCO_curve_",
            "rotation" : [
                0,
                -0.9442105293273926,
                0,
                0.3293425738811493
            ],
            "translation" : [
                5.225603103637695,
                0,
                -11.51714038848877
            ]
        },
        {
            "name" : "HACHURA_curve_",
            "rotation" : [
                0,
                -0.9442105293273926,
                0,
                0.3293425738811493
            ],
            "translation" : [
                5.225603103637695,
                0,
                -11.51714038848877
            ]
        },
        {
            "name" : "PAREDE_curve_",
            "rotation" : [
                0,
                -0.9442105293273926,
                0,
                0.3293425738811493
            ],
            "translation" : [
                5.225603103637695,
                0,
                -11.51714038848877
            ]
        },
        {
            "name" : "PONTILHADO_curve_",
            "rotation" : [
                0,
                -0.9442105293273926,
                0,
                0.3293425738811493
            ],
            "translation" : [
                5.225603103637695,
                0,
                -11.51714038848877
            ]
        },
        {
            "name" : "BL|J3_curve_",
            "rotation" : [
                0,
                -0.9442105293273926,
                0,
                0.3293425738811493
            ],
            "translation" : [
                2.81829833984375,
                0,
                -5.315567970275879
            ]
        },
        {
            "name" : "BL|P80D25_curve_",
            "rotation" : [
                0,
                -0.9442105293273926,
                0,
                0.3293425738811493
            ],
            "translation" : [
                0.6241624355316162,
                0,
                -2.742842674255371
            ]
        },
        {
            "name" : "BL|P80E25_curve_",
            "rotation" : [
                0,
                0.32934266328811646,
                0,
                0.9442104697227478
            ],
            "translation" : [
                0.40213966369628906,
                0,
                2.1585073471069336
            ]
        },
        {
            "name" : "BL|J15_curve_",
            "rotation" : [
                0,
                -0.9442105293273926,
                0,
                0.3293425738811493
            ],
            "translation" : [
                2.6359448432922363,
                0,
                0.06508779525756836
            ]
        },
        {
            "name" : "BL|P80D15_curve_",
            "rotation" : [
                0,
                0.9005380272865295,
                0,
                0.43477723002433777
            ],
            "translation" : [
                2.303098440170288,
                0,
                -1.1406078338623047
            ]
        },
        {
            "name" : "BL|P80D15_curve_.002",
            "rotation" : [
                0,
                -0.9442105293273926,
                0,
                0.3293425738811493
            ],
            "translation" : [
                7.722518444061279,
                0,
                -5.251867771148682
            ]
        },
        {
            "name" : "BL|P80D15_curve_.003",
            "rotation" : [
                0,
                0.32934266328811646,
                0,
                0.9442104697227478
            ],
            "translation" : [
                5.5793352127075195,
                0,
                -4.8267107009887695
            ]
        },
        {
            "name" : "BL|P80E15_curve_",
            "rotation" : [
                0,
                0.32934266328811646,
                0,
                0.9442104697227478
            ],
            "translation" : [
                6.474127769470215,
                0,
                -5.537384510040283
            ]
        },
        {
            "name" : "BL|J1_curve_",
            "rotation" : [
                0,
                -0.9442105293273926,
                0,
                0.3293425738811493
            ],
            "translation" : [
                9.432848930358887,
                0,
                -5.3332390785217285
            ]
        },
        {
            "name" : "BL|J15_curve_.002",
            "rotation" : [
                0,
                -0.9442105293273926,
                0,
                0.3293425738811493
            ],
            "translation" : [
                5.950729846954346,
                0,
                -9.463586807250977
            ]
        },
        {
            "name" : "BL|J15_curve_.003",
            "rotation" : [
                0,
                -0.9442105293273926,
                0,
                0.3293425738811493
            ],
            "translation" : [
                3.6919002532958984,
                0,
                -7.669549942016602
            ]
        },
        {
            "name" : "BL|VASOSAN_curve_",
            "rotation" : [
                0,
                0.9005380272865295,
                0,
                0.43477723002433777
            ],
            "translation" : [
                9.136849403381348,
                0,
                -6.042574882507324
            ]
        },
        {
            "name" : "BL|LAVAT_curve_",
            "rotation" : [
                0,
                0.32934266328811646,
                0,
                0.9442104697227478
            ],
            "translation" : [
                8.723901748657227,
                0,
                -4.770170211791992
            ]
        },
        {
            "name" : "BL|GELAD_curve_",
            "rotation" : [
                0,
                -0.9442105293273926,
                0,
                0.3293425738811493
            ],
            "translation" : [
                -0.9386844635009766,
                0,
                -1.1823210716247559
            ]
        },
        {
            "name" : "BL|FOG\u00c3O4B_curve_",
            "rotation" : [
                0,
                0.32934266328811646,
                0,
                0.9442104697227478
            ],
            "translation" : [
                2.437544822692871,
                0,
                0.22266244888305664
            ]
        },
        {
            "name" : "BL|PIA_curve_",
            "rotation" : [
                0,
                0.32934266328811646,
                0,
                0.9442104697227478
            ],
            "translation" : [
                1.4613440036773682,
                0,
                0.9979939460754395
            ]
        },
        {
            "mesh" : 2,
            "name" : "Plane",
            "rotation" : [
                0,
                -0.9442105293273926,
                0,
                0.3293425738811493
            ],
            "scale" : [
                0.24153339862823486,
                0.24153339862823486,
                0.24153339862823486
            ],
            "translation" : [
                6.248929977416992,
                0,
                -9.566619873046875
            ]
        },
        {
            "mesh" : 3,
            "name" : "Plane.005",
            "rotation" : [
                0,
                -0.9442105293273926,
                0,
                0.3293425738811493
            ],
            "scale" : [
                13.497929573059082,
                13.497929573059082,
                13.497929573059082
            ],
            "translation" : [
                1.879415512084961,
                0,
                -2.8810505867004395
            ]
        }
    ],
    "materials" : [
        {
            "doubleSided" : true,
            "name" : "Material.002",
            "pbrMetallicRoughness" : {}
        },
        {
            "alphaMode" : "BLEND",
            "extensions" : {
                "KHR_materials_transmission" : {
                    "transmissionFactor" : 1
                },
                "KHR_materials_specular" : {
                    "specularColorFactor" : [
                        1,
                        1,
                        1
                    ]
                },
                "KHR_materials_ior" : {
                    "ior" : 0
                }
            },
            "name" : "LensesMat.002",
            "pbrMetallicRoughness" : {
                "baseColorFactor" : [
                    0.800000011920929,
                    0.800000011920929,
                    0.800000011920929,
                    1
                ],
                "baseColorTexture" : {
                    "index" : 0
                },
                "roughnessFactor" : 0
            }
        },
        {
            "doubleSided" : true,
            "name" : "Material.001",
            "pbrMetallicRoughness" : {
                "baseColorFactor" : [
                    0.10199170559644699,
                    0.09096935391426086,
                    0.11020553112030029,
                    1
                ],
                "metallicFactor" : 0,
                "roughnessFactor" : 0.5
            }
        },
        {
            "doubleSided" : true,
            "extensions" : {
                "KHR_materials_specular" : {
                    "specularColorFactor" : [
                        2.371357614441398,
                        2.371357614441398,
                        2.371357614441398
                    ]
                },
                "KHR_materials_ior" : {
                    "ior" : 1.4500000476837158
                }
            },
            "name" : "Material.003",
            "pbrMetallicRoughness" : {
                "baseColorFactor" : [
                    0.007539550308138132,
                    0,
                    0.8000000715255737,
                    1
                ],
                "metallicFactor" : 0.3863636255264282,
                "roughnessFactor" : 0
            }
        },
        {
            "doubleSided" : true,
            "extensions" : {
                "KHR_materials_unlit" : {}
            },
            "name" : "Material",
            "pbrMetallicRoughness" : {
                "baseColorTexture" : {
                    "index" : 1,
                    "texCoord" : 0
                },
                "metallicFactor" : 0,
                "roughnessFactor" : 0.9
            }
        }
    ],
    "meshes" : [
        {
            "name" : "Plane.006",
            "primitives" : [
                {
                    "attributes" : {
                        "POSITION" : 0,
                        "NORMAL" : 1,
                        "TEXCOORD_0" : 2
                    },
                    "indices" : 3,
                    "material" : 0
                }
            ]
        },
        {
            "name" : "Cube",
            "primitives" : [
                {
                    "attributes" : {
                        "POSITION" : 4,
                        "NORMAL" : 5,
                        "TEXCOORD_0" : 6
                    },
                    "indices" : 7,
                    "material" : 1
                }
            ]
        },
        {
            "name" : "Plane",
            "primitives" : [
                {
                    "attributes" : {
                        "POSITION" : 8,
                        "NORMAL" : 9,
                        "TEXCOORD_0" : 10
                    },
                    "indices" : 11,
                    "material" : 2
                },
                {
                    "attributes" : {
                        "POSITION" : 12,
                        "NORMAL" : 13,
                        "TEXCOORD_0" : 14
                    },
                    "indices" : 15,
                    "material" : 3
                },
                {
                    "attributes" : {
                        "POSITION" : 16,
                        "NORMAL" : 17,
                        "TEXCOORD_0" : 18
                    },
                    "indices" : 19,
                    "material" : 3
                }
            ]
        },
        {
            "name" : "Plane.005",
            "primitives" : [
                {
                    "attributes" : {
                        "POSITION" : 20,
                        "NORMAL" : 21,
                        "TEXCOORD_0" : 22
                    },
                    "indices" : 23,
                    "material" : 4
                }
            ]
        }
    ],
    "textures" : [
        {
            "sampler" : 0,
            "source" : 0
        },
        {
            "sampler" : 0,
            "source" : 1
        }
    ],
    "images" : [
        {
            "bufferView" : 8,
            "mimeType" : "image/png",
            "name" : "FlightHelmet_Materials_LensesMat_BaseColor"
        },
        {
            "bufferView" : 25,
            "mimeType" : "image/jpeg",
            "name" : "2"
        }
    ],
    "accessors" : [
        {
            "bufferView" : 0,
            "componentType" : 5126,
            "count" : 20,
            "max" : [
                0.6835570931434631,
                -0.026190221309661865,
                0.6987995505332947
            ],
            "min" : [
                -1.187630534172058,
                -0.0399952158331871,
                -0.4470756947994232
            ],
            "type" : "VEC3"
        },
        {
            "bufferView" : 1,
            "componentType" : 5126,
            "count" : 20,
            "type" : "VEC3"
        },
        {
            "bufferView" : 2,
            "componentType" : 5126,
            "count" : 20,
            "type" : "VEC2"
        },
        {
            "bufferView" : 3,
            "componentType" : 5123,
            "count" : 30,
            "type" : "SCALAR"
        },
        {
            "bufferView" : 4,
            "componentType" : 5126,
            "count" : 24,
            "max" : [
                1,
                1,
                1
            ],
            "min" : [
                -1,
                -1,
                -1
            ],
            "type" : "VEC3"
        },
        {
            "bufferView" : 5,
            "componentType" : 5126,
            "count" : 24,
            "type" : "VEC3"
        },
        {
            "bufferView" : 6,
            "componentType" : 5126,
            "count" : 24,
            "type" : "VEC2"
        },
        {
            "bufferView" : 7,
            "componentType" : 5123,
            "count" : 36,
            "type" : "SCALAR"
        },
        {
            "bufferView" : 9,
            "componentType" : 5126,
            "count" : 1732,
            "max" : [
                50.63605880737305,
                11.178581237792969,
                8.921243667602539
            ],
            "min" : [
                -1.3236287832260132,
                -0.4772392809391022,
                -22.972366333007812
            ],
            "type" : "VEC3"
        },
        {
            "bufferView" : 10,
            "componentType" : 5126,
            "count" : 1732,
            "type" : "VEC3"
        },
        {
            "bufferView" : 11,
            "componentType" : 5126,
            "count" : 1732,
            "type" : "VEC2"
        },
        {
            "bufferView" : 12,
            "componentType" : 5123,
            "count" : 4005,
            "type" : "SCALAR"
        },
        {
            "bufferView" : 13,
            "componentType" : 5126,
            "count" : 58,
            "max" : [
                49.60100173950195,
                11.178581237792969,
                8.921243667602539
            ],
            "min" : [
                -1.3236286640167236,
                0,
                -7.639614105224609
            ],
            "type" : "VEC3"
        },
        {
            "bufferView" : 14,
            "componentType" : 5126,
            "count" : 58,
            "type" : "VEC3"
        },
        {
            "bufferView" : 15,
            "componentType" : 5126,
            "count" : 58,
            "type" : "VEC2"
        },
        {
            "bufferView" : 16,
            "componentType" : 5123,
            "count" : 138,
            "type" : "SCALAR"
        },
        {
            "bufferView" : 17,
            "componentType" : 5126,
            "count" : 193,
            "max" : [
                49.230709075927734,
                9.63955020904541,
                -7.639612197875977
            ],
            "min" : [
                0.524878978729248,
                0,
                -22.972366333007812
            ],
            "type" : "VEC3"
        },
        {
            "bufferView" : 18,
            "componentType" : 5126,
            "count" : 193,
            "type" : "VEC3"
        },
        {
            "bufferView" : 19,
            "componentType" : 5126,
            "count" : 193,
            "type" : "VEC2"
        },
        {
            "bufferView" : 20,
            "componentType" : 5123,
            "count" : 417,
            "type" : "SCALAR"
        },
        {
            "bufferView" : 21,
            "componentType" : 5126,
            "count" : 4,
            "max" : [
                1,
                0.0007408540695905685,
                1
            ],
            "min" : [
                -1,
                0.0007408540695905685,
                -1
            ],
            "type" : "VEC3"
        },
        {
            "bufferView" : 22,
            "componentType" : 5126,
            "count" : 4,
            "type" : "VEC3"
        },
        {
            "bufferView" : 23,
            "componentType" : 5126,
            "count" : 4,
            "type" : "VEC2"
        },
        {
            "bufferView" : 24,
            "componentType" : 5123,
            "count" : 6,
            "type" : "SCALAR"
        }
    ],
    "bufferViews" : [
        {
            "buffer" : 0,
            "byteLength" : 240,
            "byteOffset" : 0,
            "target" : 34962
        },
        {
            "buffer" : 0,
            "byteLength" : 240,
            "byteOffset" : 240,
            "target" : 34962
        },
        {
            "buffer" : 0,
            "byteLength" : 160,
            "byteOffset" : 480,
            "target" : 34962
        },
        {
            "buffer" : 0,
            "byteLength" : 60,
            "byteOffset" : 640,
            "target" : 34963
        },
        {
            "buffer" : 0,
            "byteLength" : 288,
            "byteOffset" : 700,
            "target" : 34962
        },
        {
            "buffer" : 0,
            "byteLength" : 288,
            "byteOffset" : 988,
            "target" : 34962
        },
        {
            "buffer" : 0,
            "byteLength" : 192,
            "byteOffset" : 1276,
            "target" : 34962
        },
        {
            "buffer" : 0,
            "byteLength" : 72,
            "byteOffset" : 1468,
            "target" : 34963
        },
        {
            "buffer" : 0,
            "byteLength" : 696304,
            "byteOffset" : 1540
        },
        {
            "buffer" : 0,
            "byteLength" : 20784,
            "byteOffset" : 697844,
            "target" : 34962
        },
        {
            "buffer" : 0,
            "byteLength" : 20784,
            "byteOffset" : 718628,
            "target" : 34962
        },
        {
            "buffer" : 0,
            "byteLength" : 13856,
            "byteOffset" : 739412,
            "target" : 34962
        },
        {
            "buffer" : 0,
            "byteLength" : 8010,
            "byteOffset" : 753268,
            "target" : 34963
        },
        {
            "buffer" : 0,
            "byteLength" : 696,
            "byteOffset" : 761280,
            "target" : 34962
        },
        {
            "buffer" : 0,
            "byteLength" : 696,
            "byteOffset" : 761976,
            "target" : 34962
        },
        {
            "buffer" : 0,
            "byteLength" : 464,
            "byteOffset" : 762672,
            "target" : 34962
        },
        {
            "buffer" : 0,
            "byteLength" : 276,
            "byteOffset" : 763136,
            "target" : 34963
        },
        {
            "buffer" : 0,
            "byteLength" : 2316,
            "byteOffset" : 763412,
            "target" : 34962
        },
        {
            "buffer" : 0,
            "byteLength" : 2316,
            "byteOffset" : 765728,
            "target" : 34962
        },
        {
            "buffer" : 0,
            "byteLength" : 1544,
            "byteOffset" : 768044,
            "target" : 34962
        },
        {
            "buffer" : 0,
            "byteLength" : 834,
            "byteOffset" : 769588,
            "target" : 34963
        },
        {
            "buffer" : 0,
            "byteLength" : 48,
            "byteOffset" : 770424,
            "target" : 34962
        },
        {
            "buffer" : 0,
            "byteLength" : 48,
            "byteOffset" : 770472,
            "target" : 34962
        },
        {
            "buffer" : 0,
            "byteLength" : 32,
            "byteOffset" : 770520,
            "target" : 34962
        },
        {
            "buffer" : 0,
            "byteLength" : 12,
            "byteOffset" : 770552,
            "target" : 34963
        },
        {
            "buffer" : 0,
            "byteLength" : 404076,
            "byteOffset" : 770564
        }
    ],
    "samplers" : [
        {
            "magFilter" : 9729,
            "minFilter" : 9987
        }
    ],
    "buffers" : [
        {
            "byteLength" : 1174640,
            "uri" : "data:application/octet-stream;base64,"
        }
    ]
}
